# xmcd
#
# Track frame offsets: 
#        150
#        20307
#        38096
#
# Disc length: 680 seconds
#
# Revision: 1
# Processed by: cddbd v1.5.2PL0 Copyright (c) Steve Scherf et al.
# Submitted via: ExactAudioCopyFreeDBPlugin 1.0
#
DISCID=1702a603
DTITLE=Right Bumper Crash - Stay for
DYEAR=2002
DGENRE=Punk Rock
TTITLE0=Stay for
TTITLE1=Bloomed red
TTITLE2=It can't wait
EXTD=YEAR: 2002
EXTT0=
EXTT1=
EXTT2=
PLAYORDER=
